<svg height="464pt" viewBox="-72 0 464 464" width="464pt" xmlns="http://www.w3.org/2000/svg"><path d="m150.246094 376-4 16h27.507812l-4-16zm0 0"/><path d="m160 0c-88.324219.101562-159.898438 71.675781-160 160 0 107.199219 129.351562 189.703125 146.214844 200h27.570312c16.855469-10.3125 146.214844-92.945312 146.214844-200-.101562-88.324219-71.675781-159.898438-160-160zm-111.382812 220.207031-14.089844 7.585938c-11.722656-20.703125-18.089844-44.003907-18.527344-67.792969-.035156-36.476562 13.832031-71.597656 38.777344-98.214844l11.695312 10.917969c-22.171875 23.65625-34.5 54.875-34.472656 87.296875.449219 21.136719 6.160156 41.832031 16.617188 60.207031zm28.984374-158.085937-10.3125-12.242188c5.195313-4.378906 10.691407-8.386718 16.445313-12l8.488281 13.601563c-5.117187 3.199219-10.003906 6.753906-14.621094 10.640625zm0 0"/><path d="m152 408h16v56h-16zm0 0"/></svg>